<mxfile host="Electron" modified="2023-10-19T10:11:10.828Z" agent="Mozilla/5.0 (Windows NT 10.0; Win64; x64) AppleWebKit/537.36 (KHTML, like Gecko) draw.io/22.0.3 Chrome/114.0.5735.289 Electron/25.8.4 Safari/537.36" etag="c-tGVfBbxPabvWPJeIug" version="22.0.3" type="device">
  <diagram name="Página-1" id="RwCs_3Kcu4jkujdT6ZMp">
    <mxGraphModel dx="1505" dy="788" grid="1" gridSize="10" guides="1" tooltips="1" connect="1" arrows="1" fold="1" page="1" pageScale="1" pageWidth="827" pageHeight="1169" math="0" shadow="0">
      <root>
        <mxCell id="0" />
        <mxCell id="1" parent="0" />
        <mxCell id="bFMCMidZZxMi9hOuai3X-2" value="Webtrainer" style="whiteSpace=wrap;html=1;align=center;" vertex="1" parent="1">
          <mxGeometry x="70" y="140" width="100" height="40" as="geometry" />
        </mxCell>
        <mxCell id="bFMCMidZZxMi9hOuai3X-4" value="ejericcios" style="whiteSpace=wrap;html=1;align=center;" vertex="1" parent="1">
          <mxGeometry x="70" y="360" width="100" height="40" as="geometry" />
        </mxCell>
        <mxCell id="bFMCMidZZxMi9hOuai3X-5" value="" style="endArrow=none;html=1;rounded=0;exitX=0.5;exitY=0;exitDx=0;exitDy=0;" edge="1" parent="1" source="bFMCMidZZxMi9hOuai3X-6" target="bFMCMidZZxMi9hOuai3X-2">
          <mxGeometry relative="1" as="geometry">
            <mxPoint x="180" y="340" as="sourcePoint" />
            <mxPoint x="340" y="340" as="targetPoint" />
          </mxGeometry>
        </mxCell>
        <mxCell id="bFMCMidZZxMi9hOuai3X-8" value="nivel" style="whiteSpace=wrap;html=1;align=center;" vertex="1" parent="1">
          <mxGeometry x="70" y="575" width="100" height="40" as="geometry" />
        </mxCell>
        <mxCell id="bFMCMidZZxMi9hOuai3X-11" value="" style="endArrow=none;html=1;rounded=0;exitX=0.5;exitY=1;exitDx=0;exitDy=0;entryX=0.5;entryY=0;entryDx=0;entryDy=0;" edge="1" parent="1" source="bFMCMidZZxMi9hOuai3X-16" target="bFMCMidZZxMi9hOuai3X-8">
          <mxGeometry relative="1" as="geometry">
            <mxPoint x="170" y="440" as="sourcePoint" />
            <mxPoint x="330" y="440" as="targetPoint" />
          </mxGeometry>
        </mxCell>
        <mxCell id="bFMCMidZZxMi9hOuai3X-17" value="" style="endArrow=none;html=1;rounded=0;exitX=0.5;exitY=1;exitDx=0;exitDy=0;entryX=0.5;entryY=0;entryDx=0;entryDy=0;" edge="1" parent="1" source="bFMCMidZZxMi9hOuai3X-4" target="bFMCMidZZxMi9hOuai3X-16">
          <mxGeometry relative="1" as="geometry">
            <mxPoint x="120" y="400" as="sourcePoint" />
            <mxPoint x="115" y="520" as="targetPoint" />
          </mxGeometry>
        </mxCell>
        <mxCell id="bFMCMidZZxMi9hOuai3X-16" value="tienen" style="shape=rhombus;perimeter=rhombusPerimeter;whiteSpace=wrap;html=1;align=center;" vertex="1" parent="1">
          <mxGeometry x="75" y="450" width="90" height="40" as="geometry" />
        </mxCell>
        <mxCell id="bFMCMidZZxMi9hOuai3X-23" value="facil" style="ellipse;whiteSpace=wrap;html=1;align=center;" vertex="1" parent="1">
          <mxGeometry x="-100" y="740" width="100" height="40" as="geometry" />
        </mxCell>
        <mxCell id="bFMCMidZZxMi9hOuai3X-24" value="medio" style="ellipse;whiteSpace=wrap;html=1;align=center;" vertex="1" parent="1">
          <mxGeometry x="70" y="740" width="100" height="40" as="geometry" />
        </mxCell>
        <mxCell id="bFMCMidZZxMi9hOuai3X-25" value="dificil" style="ellipse;whiteSpace=wrap;html=1;align=center;" vertex="1" parent="1">
          <mxGeometry x="260" y="730" width="100" height="40" as="geometry" />
        </mxCell>
        <mxCell id="bFMCMidZZxMi9hOuai3X-26" value="" style="endArrow=none;html=1;rounded=0;entryX=0.5;entryY=1;entryDx=0;entryDy=0;" edge="1" parent="1" target="bFMCMidZZxMi9hOuai3X-8">
          <mxGeometry relative="1" as="geometry">
            <mxPoint x="-50" y="730" as="sourcePoint" />
            <mxPoint x="100" y="670" as="targetPoint" />
            <Array as="points">
              <mxPoint x="-50" y="680" />
              <mxPoint x="120" y="680" />
            </Array>
          </mxGeometry>
        </mxCell>
        <mxCell id="bFMCMidZZxMi9hOuai3X-27" value="" style="endArrow=none;html=1;rounded=0;entryX=0.42;entryY=-0.05;entryDx=0;entryDy=0;entryPerimeter=0;" edge="1" parent="1" target="bFMCMidZZxMi9hOuai3X-25">
          <mxGeometry relative="1" as="geometry">
            <mxPoint x="120" y="615" as="sourcePoint" />
            <mxPoint x="300" y="560" as="targetPoint" />
            <Array as="points">
              <mxPoint x="120" y="680" />
              <mxPoint x="300" y="680" />
            </Array>
          </mxGeometry>
        </mxCell>
        <mxCell id="bFMCMidZZxMi9hOuai3X-28" value="" style="endArrow=none;html=1;rounded=0;" edge="1" parent="1" target="bFMCMidZZxMi9hOuai3X-24">
          <mxGeometry relative="1" as="geometry">
            <mxPoint x="120" y="615" as="sourcePoint" />
            <mxPoint x="282" y="668" as="targetPoint" />
          </mxGeometry>
        </mxCell>
        <mxCell id="bFMCMidZZxMi9hOuai3X-29" value="" style="endArrow=none;html=1;rounded=0;exitX=0.5;exitY=0;exitDx=0;exitDy=0;" edge="1" parent="1" source="bFMCMidZZxMi9hOuai3X-4" target="bFMCMidZZxMi9hOuai3X-6">
          <mxGeometry relative="1" as="geometry">
            <mxPoint x="120" y="360" as="sourcePoint" />
            <mxPoint x="222" y="250" as="targetPoint" />
          </mxGeometry>
        </mxCell>
        <mxCell id="bFMCMidZZxMi9hOuai3X-6" value="contiene" style="shape=rhombus;perimeter=rhombusPerimeter;whiteSpace=wrap;html=1;align=center;" vertex="1" parent="1">
          <mxGeometry x="70" y="250" width="100" height="40" as="geometry" />
        </mxCell>
        <mxCell id="bFMCMidZZxMi9hOuai3X-30" style="edgeStyle=orthogonalEdgeStyle;rounded=0;orthogonalLoop=1;jettySize=auto;html=1;exitX=0.5;exitY=1;exitDx=0;exitDy=0;" edge="1" parent="1" source="bFMCMidZZxMi9hOuai3X-25" target="bFMCMidZZxMi9hOuai3X-25">
          <mxGeometry relative="1" as="geometry" />
        </mxCell>
        <mxCell id="bFMCMidZZxMi9hOuai3X-32" value="contenido" style="whiteSpace=wrap;html=1;align=center;" vertex="1" parent="1">
          <mxGeometry x="330" y="360" width="100" height="40" as="geometry" />
        </mxCell>
        <mxCell id="bFMCMidZZxMi9hOuai3X-35" value="" style="endArrow=none;html=1;rounded=0;entryX=0;entryY=0.5;entryDx=0;entryDy=0;" edge="1" parent="1" target="bFMCMidZZxMi9hOuai3X-32">
          <mxGeometry relative="1" as="geometry">
            <mxPoint x="170" y="380" as="sourcePoint" />
            <mxPoint x="330" y="379.5" as="targetPoint" />
          </mxGeometry>
        </mxCell>
        <mxCell id="bFMCMidZZxMi9hOuai3X-33" value="tienen" style="shape=rhombus;perimeter=rhombusPerimeter;whiteSpace=wrap;html=1;align=center;" vertex="1" parent="1">
          <mxGeometry x="210" y="360" width="90" height="40" as="geometry" />
        </mxCell>
        <mxCell id="bFMCMidZZxMi9hOuai3X-37" value="pregunta parcial" style="ellipse;whiteSpace=wrap;html=1;align=center;" vertex="1" parent="1">
          <mxGeometry x="450" y="280" width="100" height="40" as="geometry" />
        </mxCell>
        <mxCell id="bFMCMidZZxMi9hOuai3X-38" value="pregunta parcial" style="ellipse;whiteSpace=wrap;html=1;align=center;" vertex="1" parent="1">
          <mxGeometry x="450" y="430" width="100" height="40" as="geometry" />
        </mxCell>
        <mxCell id="bFMCMidZZxMi9hOuai3X-39" value="" style="endArrow=none;html=1;rounded=0;entryX=0.5;entryY=1;entryDx=0;entryDy=0;" edge="1" parent="1" target="bFMCMidZZxMi9hOuai3X-37">
          <mxGeometry relative="1" as="geometry">
            <mxPoint x="430" y="379.5" as="sourcePoint" />
            <mxPoint x="590" y="379.5" as="targetPoint" />
            <Array as="points">
              <mxPoint x="500" y="380" />
            </Array>
          </mxGeometry>
        </mxCell>
        <mxCell id="bFMCMidZZxMi9hOuai3X-42" value="" style="endArrow=none;html=1;rounded=0;entryX=0.5;entryY=0;entryDx=0;entryDy=0;" edge="1" parent="1" target="bFMCMidZZxMi9hOuai3X-38">
          <mxGeometry relative="1" as="geometry">
            <mxPoint x="430" y="379.5" as="sourcePoint" />
            <mxPoint x="590" y="379.5" as="targetPoint" />
            <Array as="points">
              <mxPoint x="500" y="380" />
            </Array>
          </mxGeometry>
        </mxCell>
        <mxCell id="bFMCMidZZxMi9hOuai3X-43" value="categoria" style="whiteSpace=wrap;html=1;align=center;" vertex="1" parent="1">
          <mxGeometry x="-170" y="360" width="100" height="40" as="geometry" />
        </mxCell>
        <mxCell id="bFMCMidZZxMi9hOuai3X-45" value="" style="endArrow=none;html=1;rounded=0;exitX=1;exitY=0.5;exitDx=0;exitDy=0;" edge="1" parent="1" source="bFMCMidZZxMi9hOuai3X-43" target="bFMCMidZZxMi9hOuai3X-4">
          <mxGeometry relative="1" as="geometry">
            <mxPoint x="-100" y="460" as="sourcePoint" />
            <mxPoint x="60" y="460" as="targetPoint" />
          </mxGeometry>
        </mxCell>
        <mxCell id="bFMCMidZZxMi9hOuai3X-44" value="pertenece" style="shape=rhombus;perimeter=rhombusPerimeter;whiteSpace=wrap;html=1;align=center;" vertex="1" parent="1">
          <mxGeometry x="-40" y="360" width="80" height="40" as="geometry" />
        </mxCell>
        <mxCell id="bFMCMidZZxMi9hOuai3X-49" value="ventas y distribución" style="ellipse;whiteSpace=wrap;html=1;align=center;" vertex="1" parent="1">
          <mxGeometry x="-330" y="280" width="100" height="40" as="geometry" />
        </mxCell>
        <mxCell id="bFMCMidZZxMi9hOuai3X-50" value="organización de almacen" style="ellipse;whiteSpace=wrap;html=1;align=center;" vertex="1" parent="1">
          <mxGeometry x="-330" y="360" width="100" height="40" as="geometry" />
        </mxCell>
        <mxCell id="bFMCMidZZxMi9hOuai3X-51" value="transportes" style="ellipse;whiteSpace=wrap;html=1;align=center;" vertex="1" parent="1">
          <mxGeometry x="-330" y="440" width="100" height="40" as="geometry" />
        </mxCell>
        <mxCell id="bFMCMidZZxMi9hOuai3X-52" value="" style="endArrow=none;html=1;rounded=0;entryX=0;entryY=0.5;entryDx=0;entryDy=0;exitX=1;exitY=0.5;exitDx=0;exitDy=0;" edge="1" parent="1" source="bFMCMidZZxMi9hOuai3X-49" target="bFMCMidZZxMi9hOuai3X-43">
          <mxGeometry relative="1" as="geometry">
            <mxPoint x="-280" y="440" as="sourcePoint" />
            <mxPoint x="-120" y="440" as="targetPoint" />
          </mxGeometry>
        </mxCell>
        <mxCell id="bFMCMidZZxMi9hOuai3X-53" value="" style="endArrow=none;html=1;rounded=0;exitX=1;exitY=0.5;exitDx=0;exitDy=0;" edge="1" parent="1" source="bFMCMidZZxMi9hOuai3X-50">
          <mxGeometry relative="1" as="geometry">
            <mxPoint x="-220" y="310" as="sourcePoint" />
            <mxPoint x="-170" y="380" as="targetPoint" />
          </mxGeometry>
        </mxCell>
        <mxCell id="bFMCMidZZxMi9hOuai3X-54" value="" style="endArrow=none;html=1;rounded=0;exitX=1;exitY=0.5;exitDx=0;exitDy=0;" edge="1" parent="1" source="bFMCMidZZxMi9hOuai3X-51">
          <mxGeometry relative="1" as="geometry">
            <mxPoint x="-220" y="400" as="sourcePoint" />
            <mxPoint x="-170" y="380" as="targetPoint" />
          </mxGeometry>
        </mxCell>
      </root>
    </mxGraphModel>
  </diagram>
</mxfile>
